<?xml version="1.0" encoding="utf-8"?>
<!-- Uploaded to: SVG Repo, www.svgrepo.com, Generator: SVG Repo Mixer Tools -->
<svg width="800px" height="800px" viewBox="0 0 1024 1024" class="icon"  version="1.1" xmlns="http://www.w3.org/2000/svg"><path d="M993.763 493.538v35c0 13.331-6.04 26.664-18.135 37.137-140.149 121.422-280.35 242.795-420.49 364.219-11.813 10.237-25.813 15.501-42.454 15.501v-35c16.644 0 30.641-5.264 42.454-15.501C695.28 773.47 835.474 652.092 975.628 530.677c12.095-10.475 18.135-23.803 18.135-37.139z" fill="#E4B168" /><path d="M30.239 528.367v-3.5-1.75-3.5-3.5-1.75-3.5-3.5-1.75-3.5-3.5-1.75-3.5c0 14.707 6.701 29.313 19.037 40.019 138.449 120.064 277.049 239.996 415.562 360.02 13.002 11.26 28.74 16.466 47.853 16.994v35c-19.108-0.528-34.851-5.734-47.853-16.994C326.325 808.382 187.725 688.45 49.276 568.386c-12.337-10.705-19.037-25.312-19.037-40.019z" fill="#E4B168" /><path d="M510.786 76.601c16.263 0 32.546 5.362 44.946 16.097 139.949 121.188 279.9 242.376 419.818 363.586 24.241 20.995 24.295 53.413 0.079 74.396C835.48 652.101 695.28 773.478 555.141 894.898c-11.814 10.238-25.813 15.502-42.451 15.502-19.109-0.528-34.853-5.734-47.854-16.994C326.324 773.382 187.724 653.45 49.275 533.386c-19.581-16.987-24.96-43.81-11.895-65.251 3.919-6.438 8.669-11.829 14.465-16.849C189.954 331.734 328.024 212.152 466.107 92.567c12.296-10.639 28.478-15.966 44.679-15.966z" fill="#F7D47F" /><path d="M654.622 413.672c0.011 11.505 0.017 23.013 0.014 34.521 0 11.509-0.008 23.017-0.022 34.521 0 3.729-1.915 5.377-6.229 5.377a66190.032 66190.032 0 0 1-79.723 0c-4.788-0.008-6.411-1.423-6.421-5.567-0.012-5.689-0.013-11.376-0.013-17.067l0.001-17.065c-0.019-5.753-0.021-11.509-0.021-17.264 0-5.756 0.003-11.51 0.012-17.264 0.01-4.33 1.645-5.761 6.663-5.761a65447.306 65447.306 0 0 1 79.28 0c4.677 0 6.449 1.527 6.459 5.569z m-25.744 52.037v-35.04h-40.763v35.04h40.763" fill="#EDCA89" /><path d="M435.867 430.556v35.18h-40.663v-35.18h40.663z" fill="#F4E36E" /><path d="M461.823 413.682c0.003 8.629 0.005 17.261 0.005 25.891 0 14.384-0.007 28.77-0.027 43.15-0.009 3.79-1.813 5.361-6.208 5.361-26.722 0.027-53.442 0.008-80.165 0.027-4.054 0-6.009-1.729-6.009-5.204 0-14.469-0.007-28.936-0.007-43.4 0.001-8.678 0.005-17.354 0.016-26.035 0-3.709 1.936-5.359 6.24-5.368 2.879-0.005 5.759-0.008 8.638-0.011l7.918-0.002h0.72c7.68 0 15.354 0.005 23.034 0.005 7.512 0 15.02-0.005 22.524-0.005h0.703l7.741 0.002c2.814 0.003 5.629 0.006 8.443 0.011 4.741 0.008 6.424 1.466 6.434 5.578z m-25.956 52.053v-35.18h-40.663v35.18h40.663" fill="#EDCA89" /><path d="M691.707 316.095c0-2.681-0.273-5.475-1.132-8.032-3.175-9.471-13.565-15.652-25.896-15.652-86.162-0.009-172.326-0.009-258.489-0.009-9.138 0-18.267 0.012-27.398 0.012-6.847 0-13.694-0.005-20.641-0.029-6.197 0-11.561 1.607-16.331 5.134-6.865 5.071-9.617 11.383-9.597 19.151 0.12 57.676 0.061 115.353 0.061 173.038 0 57.808 0.283 115.615-0.201 173.42-0.109 13.997 13.396 24.488 28.405 24.486 50.622-0.205 101.243-0.303 151.865-0.303s101.243 0.097 151.973 0.274c14.086 0 27.624-10.412 27.594-23.865-0.293-115.874-0.165-231.75-0.213-347.625z m-25.573 341.953c0 7.035-0.161 7.186-8.196 7.186H365.904c-7.764 0-7.993-0.201-7.993-6.977V489.908 322.345c0-1.424 0.029-2.846 0.081-4.268 0.071-2.165 1.332-3.344 3.86-3.414 1.491-0.043 2.983-0.087 4.476-0.087 48.601-0.005 97.2-0.006 145.797-0.006s97.193 0.001 145.789 0.006c8.063 0 8.225 0.139 8.225 7.167-0.005 112.094-0.005 224.199-0.005 336.305" fill="#EDCA89" /><path d="M628.939 346.996v28.746H395.171v-28.746h233.768z" fill="#FCECCF" /><path d="M654.633 330.873c0.006 10.213 0.007 20.424 0.007 30.637 0 10.21-0.001 20.421-0.007 30.636 0 4.522-1.613 5.91-6.925 5.91H376.807c-5.968 0-7.408-1.222-7.408-6.277 0-20.297 0-40.592 0.011-60.88 0-5.106 1.438-6.346 7.368-6.346a1523963.222 1523963.222 0 0 1 270.456 0c5.977-0.001 7.399 1.222 7.399 6.32z m-25.694 44.87v-28.746H395.171v28.746h233.768" fill="#EDCA89" /><path d="M532.333 430.521v35.111H491.73v-35.111h40.603zM628.878 430.669v35.04h-40.763v-35.04h40.763z" fill="#F4E36E" /><path d="M558.308 414.188c0.005 5.655 0.005 11.31 0.005 16.964 0 16.964-0.01 33.928-0.024 50.893 0 4.521-1.743 6.059-6.885 6.066a129392.894 129392.894 0 0 1-78.796 0c-5.131-0.01-6.846-1.546-6.854-6.103-0.015-16.958-0.024-33.918-0.023-50.883 0-5.655 0-11.309 0.003-16.964 0-4.452 1.832-6.066 6.903-6.076 4.429-0.006 8.858-0.007 13.285-0.007h0.949c4.114 0 8.222 0.001 12.335 0.004l13.277 0.003c8.555 0 17.113-0.003 25.67-0.003 4.28 0 8.558 0 12.834 0.003 5.497 0.001 7.321 1.52 7.321 6.103z m-25.975 51.443v-35.11H491.73v35.11h40.603M558.287 497.772c0.017 16.964 0.025 33.928 0.025 50.89 0 5.653 0 11.305-0.004 16.957 0 4.583-1.835 6.094-7.328 6.094-12.98 0.009-25.967 0.009-38.946 0.009l-19.701 0.002c-6.568 0-13.135-0.002-19.703-0.011-5.061-0.009-6.895-1.623-6.895-6.086-0.003-5.65-0.003-11.304-0.003-16.957 0-16.96 0.008-33.924 0.022-50.888 0.009-4.539 1.733-6.084 6.865-6.084a64678.395 64678.395 0 0 1 78.795 0c5.142-0.001 6.873 1.545 6.873 6.074z m-25.946 51.382V514.14h-40.794v35.014h40.794" fill="#EDCA89" /><path d="M435.756 514.07v35.188h-40.603V514.07h40.603z" fill="#F4E36E" /><path d="M461.813 498.104c0.01 22.505 0.01 45 0.01 67.497 0 4.854-1.461 6.102-7.167 6.102-4.381 0.003-8.764 0.004-13.143 0.004-8.76 0-17.517-0.004-26.272-0.004-4.762 0-9.528 0.003-14.291 0.004-3.464 0.003-6.928 0.004-10.393 0.004h-1.299c-4.33 0-8.66-0.001-12.986-0.008-5.242-0.01-6.854-1.424-6.854-6.015a95993.64 95993.64 0 0 1 0-67.88c0-4.812 1.531-6.104 7.197-6.104 12.987-0.002 25.975-0.005 38.963-0.005 12.987 0 25.977 0.003 38.965 0.005 5.94 0.001 7.27 1.179 7.27 6.4z m-26.057 51.155v-35.188h-40.603v35.188h40.603" fill="#EDCA89" /><path d="M435.876 597.673v35.268h-40.602v-35.268h40.602z" fill="#F4E36E" /><path d="M654.622 498.069c0.011 50.29 0.011 100.583 0.011 150.864 0 5.105-1.422 6.321-7.408 6.321l-51.942 0.002c-8.66 0-17.314 0-25.978-0.002-5.704-0.01-7.095-1.231-7.095-6.173-0.003-6.301-0.004-12.602-0.004-18.903-0.003-18.903 0.004-37.813 0.004-56.722 0.021-25.08 0.021-50.159 0.021-75.239 0-5.481 1.199-6.512 7.578-6.512a125059.184 125059.184 0 0 1 77.475 0c5.867 0.001 7.338 1.275 7.338 6.364z m-25.763 134.766V514.036h-40.653v118.799h40.653M461.802 615.342c0.041 5.69 0.044 11.384 0.044 17.072 0 5.69-0.003 11.382-0.012 17.068-0.01 4.346-1.625 5.761-6.673 5.761-13.215 0.01-26.431 0.013-39.646 0.013-13.214 0-26.429-0.003-39.646-0.013-4.688 0-6.451-1.52-6.451-5.578-0.009-11.51-0.015-23.02-0.015-34.528 0-11.512 0.009-23.021 0.023-34.528 0.01-3.755 1.896-5.389 6.219-5.396 11.946-0.007 23.896-0.013 35.845-0.013h0.915c6.708 0 13.414 0.003 20.121 0.006 7.621 0.002 15.24 0.008 22.864 0.015 4.747 0 6.39 1.45 6.4 5.597 0.012 4.314 0.016 8.631 0.018 12.946 0.003 7.193-0.006 14.386-0.006 21.578z m-25.926 17.598v-35.268h-40.602v35.268h40.602M558.279 615.631c0.049 11.112 0.049 22.226 0.049 33.337 0 4.654-1.823 6.295-7.125 6.295a127886.796 127886.796 0 0 1-78.342 0c-5.322 0-7.146-1.624-7.146-6.275 0.021-22.358 0.03-44.713 0.05-67.069 0.011-5.236 1.686-6.729 7.529-6.729h77.444c5.868 0 7.541 1.485 7.541 6.713v33.728z m-25.785 17.154v-35.078h-40.826v35.078h40.826" fill="#EDCA89" /><path d="M657.909 314.575c8.065 0 8.225 0.14 8.225 7.166v336.307c0 7.034-0.158 7.186-8.194 7.186H365.901c-7.762 0-7.992-0.204-7.992-6.977V489.908 322.345c0-1.424 0.031-2.846 0.082-4.268 0.068-2.165 1.33-3.345 3.858-3.414 1.493-0.043 2.984-0.087 4.477-0.087 48.601-0.003 97.198-0.006 145.797-0.006 48.597 0 97.19 0.001 145.786 0.005z m-3.276 77.571c0.006-10.213 0.007-20.426 0.007-30.636 0-10.212-0.001-20.424-0.007-30.637 0-5.097-1.422-6.321-7.397-6.321a1523720.946 1523720.946 0 0 0-270.458 0c-5.928 0-7.368 1.24-7.368 6.346-0.013 20.288-0.013 40.584-0.013 60.88 0 5.055 1.442 6.277 7.409 6.277h270.903c5.311 0.002 6.924-1.388 6.924-5.909m-7.408 263.109c5.986 0 7.408-1.215 7.408-6.318 0-50.284 0-100.574-0.011-150.867 0-5.088-1.471-6.363-7.338-6.363a125046.271 125046.271 0 0 0-77.475 0c-6.381 0-7.578 1.031-7.578 6.512v75.24c-0.021 18.908-0.026 37.816-0.023 56.721 0 6.303 0 12.604 0.003 18.903 0 4.94 1.392 6.164 7.096 6.173 8.659 0.002 17.317 0.002 25.978 0.002l51.94-0.003m-88.897-6.287v-33.337c-0.049-11.244-0.049-22.489-0.049-33.731 0-5.229-1.674-6.713-7.541-6.713h-77.445c-5.846 0-7.518 1.491-7.53 6.729-0.019 22.357-0.028 44.712-0.051 67.071 0 4.648 1.825 6.273 7.148 6.273a102289.588 102289.588 0 0 0 78.343 0c5.302 0.003 7.125-1.638 7.125-6.292m-92.575-151.186a50780.137 50780.137 0 0 0-0.02 67.847c0 4.461 1.835 6.077 6.895 6.085 6.568 0.008 13.133 0.01 19.701 0.01l19.701-0.002c12.98 0 25.964 0 38.947-0.008 5.495 0 7.328-1.511 7.328-6.095 0.004-5.65 0.004-11.304 0.004-16.957 0-16.96-0.01-33.925-0.024-50.888 0-4.53-1.731-6.076-6.873-6.076a64693.171 64693.171 0 0 0-78.795 0c-5.13-0.001-6.854 1.545-6.864 6.084m-0.023-66.656c0 16.964 0.008 33.924 0.022 50.883 0.01 4.558 1.724 6.092 6.855 6.103a129300.145 129300.145 0 0 0 78.797 0c5.141-0.01 6.882-1.546 6.882-6.066 0.017-16.964 0.026-33.928 0.026-50.893 0-5.654 0-11.31-0.005-16.964 0-4.582-1.824-6.102-7.319-6.102-4.276-0.003-8.554-0.003-12.834-0.003l-25.671 0.003c-4.427 0-8.851-0.001-13.277-0.003l-12.334-0.004h-0.948c-4.428 0-8.857 0.001-13.285 0.007-5.07 0.008-6.905 1.624-6.905 6.076-0.004 5.654-0.004 11.308-0.004 16.963m-3.896 218.357c0.008-5.688 0.012-11.376 0.012-17.067l-0.003-17.071c-0.041-7.193-0.03-14.386-0.032-21.579 0-4.315-0.006-8.633-0.018-12.946-0.011-4.146-1.654-5.596-6.398-5.596-7.621-0.009-15.246-0.013-22.865-0.017-6.707-0.003-13.415-0.006-20.121-0.006h-0.915c-11.948 0-23.897 0.006-35.844 0.014-4.324 0.009-6.21 1.642-6.22 5.396a36130.945 36130.945 0 0 0-0.01 69.058c0 4.058 1.764 5.578 6.451 5.578a65485.291 65485.291 0 0 0 79.29 0c5.048-0.001 6.662-1.419 6.673-5.764m192.778-166.769c0.016-11.505 0.021-23.013 0.022-34.521 0.003-11.508-0.003-23.016-0.014-34.521-0.01-4.042-1.782-5.57-6.461-5.57a65484.465 65484.465 0 0 0-79.281 0c-5.021 0-6.651 1.433-6.664 5.761-0.009 5.753-0.012 11.508-0.012 17.264l0.003 17.263c0.021 5.688 0.019 11.376 0.019 17.065s0.003 11.379 0.012 17.066c0.012 4.146 1.634 5.561 6.422 5.569 13.291 0.008 26.578 0.015 39.867 0.015 13.286 0 26.569-0.007 39.855-0.015 4.317 0.003 6.232-1.648 6.232-5.376m-285.199-43.207c-0.001 14.465 0.006 28.932 0.006 43.4 0 3.476 1.955 5.204 6.009 5.204 26.721-0.019 53.443 0 80.165-0.027 4.396 0 6.2-1.572 6.208-5.361 0.021-14.381 0.027-28.767 0.027-43.151 0-8.631-0.002-17.262-0.005-25.889-0.009-4.112-1.694-5.571-6.432-5.58-2.815-0.005-5.63-0.008-8.443-0.011l-7.741-0.003h-0.703c-7.506 0-15.014 0.006-22.523 0.006-7.68 0-15.356-0.006-23.036-0.006h-0.72c-2.64 0-5.279 0-7.918 0.003-2.878 0.001-5.759 0.005-8.637 0.011-4.305 0.008-6.24 1.659-6.24 5.369-0.011 8.678-0.017 17.358-0.017 26.035m0.006 58.301a95988.69 95988.69 0 0 0 0 67.88c0 4.591 1.612 6.005 6.854 6.016 4.326 0.006 8.657 0.007 12.986 0.007h1.297c3.467 0 6.93-0.001 10.393-0.004l14.292-0.003c8.755 0 17.512 0.003 26.271 0.003l13.143-0.003c5.707 0 7.168-1.251 7.168-6.103 0-22.497 0-44.992-0.01-67.497 0-5.222-1.332-6.398-7.27-6.398a126511.245 126511.245 0 0 0-77.928 0c-5.664 0-7.196 1.292-7.196 6.102" fill="#E1DEA8" /><path d="M532.341 514.142v35.014h-40.794v-35.014h40.794zM532.494 597.708v35.078h-40.826v-35.078h40.826zM628.859 514.036v118.799h-40.653V514.036h40.653z" fill="#F4E36E" /><path d="M691.919 663.723v16.801c0.03 13.452-13.508 23.865-27.595 23.865-50.729-0.181-101.35-0.272-151.973-0.272-50.62 0-101.242 0.093-151.863 0.301-15.008 0-28.517-10.489-28.406-24.488v-16.8c-0.109 13.999 13.396 24.488 28.406 24.488 50.622-0.207 101.243-0.301 151.863-0.301 50.623 0 101.243 0.093 151.973 0.272 14.086 0 27.624-10.413 27.595-23.866z" fill="#D0A877" /><path d="M691.919 663.723v16.801c0 0.437-0.012 0.865-0.038 1.297v-16.802c0.026-0.431 0.038-0.862 0.038-1.296M691.88 665.019v16.802c-0.294 4.664-2.218 8.922-5.205 12.453v-16.801c2.987-3.532 4.911-7.789 5.205-12.454" fill="#D0A877" /><path d="M686.676 677.472v16.801c-1.732 2.051-3.828 3.857-6.169 5.354v-16.8c2.34-1.498 4.434-3.305 6.169-5.355M680.506 682.825v16.8a30.2 30.2 0 0 1-5.864 2.902v-16.801a30.027 30.027 0 0 0 5.864-2.901" fill="#D0A877" /><path d="M674.644 685.729v16.8a30.505 30.505 0 0 1-6.372 1.591v-16.8a30.505 30.505 0 0 0 6.372-1.591M668.271 687.319v16.8a29.358 29.358 0 0 1-3.946 0.268c-50.729-0.18-101.35-0.272-151.972-0.272-50.621 0-101.243 0.094-151.864 0.301-15.008 0-28.517-10.488-28.406-24.487v-16.8c-0.109 13.998 13.397 24.487 28.406 24.487 50.622-0.206 101.243-0.302 151.864-0.302 50.622 0 101.242 0.094 151.972 0.273a29.205 29.205 0 0 0 3.946-0.268" fill="#D0A877" /></svg>